<mxfile host="app.diagrams.net" modified="2024-04-20T22:43:34.838Z" agent="Mozilla/5.0 (Windows NT 10.0; Win64; x64) AppleWebKit/537.36 (KHTML, like Gecko) Chrome/124.0.0.0 Safari/537.36" etag="osmBQS-1cJY3iLVTSBpJ" version="24.2.7" type="github">
  <diagram id="R2lEEEUBdFMjLlhIrx00" name="Page-1">
    <mxGraphModel dx="1463" dy="652" grid="1" gridSize="10" guides="1" tooltips="1" connect="1" arrows="1" fold="1" page="1" pageScale="1" pageWidth="850" pageHeight="1100" math="0" shadow="0" extFonts="Permanent Marker^https://fonts.googleapis.com/css?family=Permanent+Marker">
      <root>
        <mxCell id="0" />
        <mxCell id="1" parent="0" />
        <mxCell id="sfVFJ_ldbt0xJAOG3OK--56" value="ESTUDIANTE" style="whiteSpace=wrap;html=1;align=center;" vertex="1" parent="1">
          <mxGeometry x="340" y="100" width="100" height="40" as="geometry" />
        </mxCell>
        <mxCell id="sfVFJ_ldbt0xJAOG3OK--57" value="MAESTRO" style="whiteSpace=wrap;html=1;align=center;" vertex="1" parent="1">
          <mxGeometry x="340" y="520" width="100" height="40" as="geometry" />
        </mxCell>
        <mxCell id="sfVFJ_ldbt0xJAOG3OK--58" value="GRUPO" style="whiteSpace=wrap;html=1;align=center;" vertex="1" parent="1">
          <mxGeometry x="340" y="310" width="100" height="40" as="geometry" />
        </mxCell>
        <mxCell id="sfVFJ_ldbt0xJAOG3OK--65" value="" style="endArrow=none;html=1;rounded=0;entryX=0.25;entryY=1;entryDx=0;entryDy=0;" edge="1" parent="1" source="sfVFJ_ldbt0xJAOG3OK--66" target="sfVFJ_ldbt0xJAOG3OK--57">
          <mxGeometry relative="1" as="geometry">
            <mxPoint x="580" y="340" as="sourcePoint" />
            <mxPoint x="610" y="330" as="targetPoint" />
          </mxGeometry>
        </mxCell>
        <mxCell id="sfVFJ_ldbt0xJAOG3OK--66" value="no_empleado" style="ellipse;whiteSpace=wrap;html=1;align=center;fontStyle=4;" vertex="1" parent="1">
          <mxGeometry x="290" y="610" width="100" height="40" as="geometry" />
        </mxCell>
        <mxCell id="sfVFJ_ldbt0xJAOG3OK--68" value="nombre_maestro" style="ellipse;whiteSpace=wrap;html=1;align=center;" vertex="1" parent="1">
          <mxGeometry x="160" y="510" width="100" height="40" as="geometry" />
        </mxCell>
        <mxCell id="sfVFJ_ldbt0xJAOG3OK--72" value="" style="endArrow=none;html=1;rounded=0;entryX=0.5;entryY=1;entryDx=0;entryDy=0;" edge="1" parent="1" source="sfVFJ_ldbt0xJAOG3OK--57" target="sfVFJ_ldbt0xJAOG3OK--68">
          <mxGeometry relative="1" as="geometry">
            <mxPoint x="620" y="90" as="sourcePoint" />
            <mxPoint x="620" y="90" as="targetPoint" />
          </mxGeometry>
        </mxCell>
        <mxCell id="sfVFJ_ldbt0xJAOG3OK--73" value="" style="endArrow=none;html=1;rounded=0;entryX=0.223;entryY=0.05;entryDx=0;entryDy=0;entryPerimeter=0;" edge="1" parent="1" source="sfVFJ_ldbt0xJAOG3OK--57" target="sfVFJ_ldbt0xJAOG3OK--74">
          <mxGeometry relative="1" as="geometry">
            <mxPoint x="620" y="290" as="sourcePoint" />
            <mxPoint x="620" y="320" as="targetPoint" />
          </mxGeometry>
        </mxCell>
        <mxCell id="sfVFJ_ldbt0xJAOG3OK--74" value="departamento" style="ellipse;whiteSpace=wrap;html=1;align=center;" vertex="1" parent="1">
          <mxGeometry x="520" y="530" width="100" height="40" as="geometry" />
        </mxCell>
        <mxCell id="sfVFJ_ldbt0xJAOG3OK--75" value="no_matricula" style="ellipse;whiteSpace=wrap;html=1;align=center;fontStyle=4;" vertex="1" parent="1">
          <mxGeometry x="210" y="40" width="100" height="40" as="geometry" />
        </mxCell>
        <mxCell id="sfVFJ_ldbt0xJAOG3OK--76" value="" style="endArrow=none;html=1;rounded=0;exitX=0.93;exitY=0.867;exitDx=0;exitDy=0;exitPerimeter=0;entryX=0;entryY=0;entryDx=0;entryDy=0;" edge="1" parent="1" source="sfVFJ_ldbt0xJAOG3OK--75" target="sfVFJ_ldbt0xJAOG3OK--56">
          <mxGeometry relative="1" as="geometry">
            <mxPoint x="190" y="190" as="sourcePoint" />
            <mxPoint x="350" y="190" as="targetPoint" />
          </mxGeometry>
        </mxCell>
        <mxCell id="sfVFJ_ldbt0xJAOG3OK--77" value="" style="endArrow=none;html=1;rounded=0;entryX=0;entryY=1;entryDx=0;entryDy=0;exitX=0.5;exitY=0;exitDx=0;exitDy=0;" edge="1" parent="1" source="sfVFJ_ldbt0xJAOG3OK--78" target="sfVFJ_ldbt0xJAOG3OK--58">
          <mxGeometry relative="1" as="geometry">
            <mxPoint x="120" y="540" as="sourcePoint" />
            <mxPoint x="280" y="540" as="targetPoint" />
          </mxGeometry>
        </mxCell>
        <mxCell id="sfVFJ_ldbt0xJAOG3OK--78" value="cod_grupo" style="ellipse;whiteSpace=wrap;html=1;align=center;fontStyle=4;" vertex="1" parent="1">
          <mxGeometry x="150" y="330" width="100" height="40" as="geometry" />
        </mxCell>
        <mxCell id="sfVFJ_ldbt0xJAOG3OK--79" value="" style="endArrow=none;html=1;rounded=0;entryX=0;entryY=0.5;entryDx=0;entryDy=0;exitX=0.637;exitY=0.033;exitDx=0;exitDy=0;exitPerimeter=0;" edge="1" parent="1" source="sfVFJ_ldbt0xJAOG3OK--80" target="sfVFJ_ldbt0xJAOG3OK--56">
          <mxGeometry relative="1" as="geometry">
            <mxPoint x="110" y="290" as="sourcePoint" />
            <mxPoint x="220" y="330" as="targetPoint" />
          </mxGeometry>
        </mxCell>
        <mxCell id="sfVFJ_ldbt0xJAOG3OK--80" value="contacto_emergencia" style="ellipse;whiteSpace=wrap;html=1;align=center;" vertex="1" parent="1">
          <mxGeometry x="170" y="110" width="120" height="40" as="geometry" />
        </mxCell>
        <mxCell id="sfVFJ_ldbt0xJAOG3OK--82" value="ultimo_año_cursado" style="ellipse;whiteSpace=wrap;html=1;align=center;" vertex="1" parent="1">
          <mxGeometry x="340" y="20" width="110" height="40" as="geometry" />
        </mxCell>
        <mxCell id="sfVFJ_ldbt0xJAOG3OK--83" value="" style="endArrow=none;html=1;rounded=0;exitX=0.5;exitY=1;exitDx=0;exitDy=0;entryX=0.5;entryY=0;entryDx=0;entryDy=0;" edge="1" parent="1" source="sfVFJ_ldbt0xJAOG3OK--82" target="sfVFJ_ldbt0xJAOG3OK--56">
          <mxGeometry relative="1" as="geometry">
            <mxPoint x="210" y="340" as="sourcePoint" />
            <mxPoint x="370" y="340" as="targetPoint" />
          </mxGeometry>
        </mxCell>
        <mxCell id="sfVFJ_ldbt0xJAOG3OK--85" value="promedio_notas" style="ellipse;whiteSpace=wrap;html=1;align=center;" vertex="1" parent="1">
          <mxGeometry x="480" y="30" width="100" height="40" as="geometry" />
        </mxCell>
        <mxCell id="sfVFJ_ldbt0xJAOG3OK--87" value="" style="endArrow=none;html=1;rounded=0;exitX=0.043;exitY=0.8;exitDx=0;exitDy=0;exitPerimeter=0;entryX=1;entryY=0;entryDx=0;entryDy=0;" edge="1" parent="1" source="sfVFJ_ldbt0xJAOG3OK--85" target="sfVFJ_ldbt0xJAOG3OK--56">
          <mxGeometry relative="1" as="geometry">
            <mxPoint x="190" y="370" as="sourcePoint" />
            <mxPoint x="350" y="370" as="targetPoint" />
          </mxGeometry>
        </mxCell>
        <mxCell id="sfVFJ_ldbt0xJAOG3OK--88" value="" style="endArrow=none;html=1;rounded=0;exitX=1;exitY=0.5;exitDx=0;exitDy=0;entryX=0;entryY=0;entryDx=0;entryDy=0;" edge="1" parent="1" source="sfVFJ_ldbt0xJAOG3OK--89" target="sfVFJ_ldbt0xJAOG3OK--58">
          <mxGeometry relative="1" as="geometry">
            <mxPoint x="270" y="270" as="sourcePoint" />
            <mxPoint x="340" y="290" as="targetPoint" />
          </mxGeometry>
        </mxCell>
        <mxCell id="sfVFJ_ldbt0xJAOG3OK--89" value="año_grupo" style="ellipse;whiteSpace=wrap;html=1;align=center;" vertex="1" parent="1">
          <mxGeometry x="150" y="260" width="100" height="40" as="geometry" />
        </mxCell>
        <mxCell id="sfVFJ_ldbt0xJAOG3OK--91" value="" style="endArrow=none;html=1;rounded=0;exitX=1;exitY=0.5;exitDx=0;exitDy=0;entryX=0;entryY=0.5;entryDx=0;entryDy=0;" edge="1" parent="1" source="sfVFJ_ldbt0xJAOG3OK--58" target="sfVFJ_ldbt0xJAOG3OK--92">
          <mxGeometry relative="1" as="geometry">
            <mxPoint x="470" y="309.5" as="sourcePoint" />
            <mxPoint x="520" y="310" as="targetPoint" />
          </mxGeometry>
        </mxCell>
        <mxCell id="sfVFJ_ldbt0xJAOG3OK--92" value="nombre_salon" style="ellipse;whiteSpace=wrap;html=1;align=center;" vertex="1" parent="1">
          <mxGeometry x="530" y="310" width="100" height="40" as="geometry" />
        </mxCell>
        <mxCell id="sfVFJ_ldbt0xJAOG3OK--93" value="PERTENECE" style="shape=rhombus;perimeter=rhombusPerimeter;whiteSpace=wrap;html=1;align=center;" vertex="1" parent="1">
          <mxGeometry x="330" y="190" width="120" height="60" as="geometry" />
        </mxCell>
        <mxCell id="sfVFJ_ldbt0xJAOG3OK--94" value="ENCARGADO" style="shape=rhombus;perimeter=rhombusPerimeter;whiteSpace=wrap;html=1;align=center;" vertex="1" parent="1">
          <mxGeometry x="330" y="400" width="120" height="60" as="geometry" />
        </mxCell>
        <mxCell id="sfVFJ_ldbt0xJAOG3OK--95" value="" style="endArrow=none;html=1;rounded=0;entryX=0.5;entryY=0;entryDx=0;entryDy=0;exitX=0.5;exitY=1;exitDx=0;exitDy=0;" edge="1" parent="1" source="sfVFJ_ldbt0xJAOG3OK--94" target="sfVFJ_ldbt0xJAOG3OK--57">
          <mxGeometry relative="1" as="geometry">
            <mxPoint x="180" y="420" as="sourcePoint" />
            <mxPoint x="340" y="420" as="targetPoint" />
          </mxGeometry>
        </mxCell>
        <mxCell id="sfVFJ_ldbt0xJAOG3OK--96" value="" style="endArrow=none;html=1;rounded=0;exitX=0.5;exitY=1;exitDx=0;exitDy=0;entryX=0.5;entryY=0;entryDx=0;entryDy=0;" edge="1" parent="1" source="sfVFJ_ldbt0xJAOG3OK--56" target="sfVFJ_ldbt0xJAOG3OK--93">
          <mxGeometry relative="1" as="geometry">
            <mxPoint x="490" y="220" as="sourcePoint" />
            <mxPoint x="650" y="220" as="targetPoint" />
          </mxGeometry>
        </mxCell>
        <mxCell id="sfVFJ_ldbt0xJAOG3OK--97" value="" style="endArrow=none;html=1;rounded=0;exitX=0.5;exitY=1;exitDx=0;exitDy=0;entryX=0.5;entryY=0;entryDx=0;entryDy=0;" edge="1" parent="1" source="sfVFJ_ldbt0xJAOG3OK--58" target="sfVFJ_ldbt0xJAOG3OK--94">
          <mxGeometry relative="1" as="geometry">
            <mxPoint x="320" y="380" as="sourcePoint" />
            <mxPoint x="480" y="380" as="targetPoint" />
          </mxGeometry>
        </mxCell>
        <mxCell id="sfVFJ_ldbt0xJAOG3OK--98" value="" style="endArrow=none;html=1;rounded=0;exitX=0.5;exitY=1;exitDx=0;exitDy=0;entryX=0.5;entryY=0;entryDx=0;entryDy=0;" edge="1" parent="1" source="sfVFJ_ldbt0xJAOG3OK--93" target="sfVFJ_ldbt0xJAOG3OK--58">
          <mxGeometry relative="1" as="geometry">
            <mxPoint x="450" y="250" as="sourcePoint" />
            <mxPoint x="610" y="250" as="targetPoint" />
          </mxGeometry>
        </mxCell>
        <mxCell id="sfVFJ_ldbt0xJAOG3OK--100" value="(1,N)" style="text;strokeColor=none;align=center;fillColor=none;html=1;verticalAlign=middle;whiteSpace=wrap;rounded=0;" vertex="1" parent="1">
          <mxGeometry x="380" y="150" width="60" height="30" as="geometry" />
        </mxCell>
        <mxCell id="sfVFJ_ldbt0xJAOG3OK--101" value="(1,1)" style="text;strokeColor=none;align=center;fillColor=none;html=1;verticalAlign=middle;whiteSpace=wrap;rounded=0;" vertex="1" parent="1">
          <mxGeometry x="380" y="280" width="60" height="30" as="geometry" />
        </mxCell>
        <mxCell id="sfVFJ_ldbt0xJAOG3OK--102" value="(N,1)" style="text;strokeColor=none;align=center;fillColor=none;html=1;verticalAlign=middle;whiteSpace=wrap;rounded=0;" vertex="1" parent="1">
          <mxGeometry x="280" y="205" width="60" height="30" as="geometry" />
        </mxCell>
        <mxCell id="sfVFJ_ldbt0xJAOG3OK--103" value="(1,1)" style="text;strokeColor=none;align=center;fillColor=none;html=1;verticalAlign=middle;whiteSpace=wrap;rounded=0;" vertex="1" parent="1">
          <mxGeometry x="380" y="350" width="60" height="30" as="geometry" />
        </mxCell>
        <mxCell id="sfVFJ_ldbt0xJAOG3OK--104" value="(1,1)" style="text;strokeColor=none;align=center;fillColor=none;html=1;verticalAlign=middle;whiteSpace=wrap;rounded=0;" vertex="1" parent="1">
          <mxGeometry x="380" y="490" width="60" height="30" as="geometry" />
        </mxCell>
        <mxCell id="sfVFJ_ldbt0xJAOG3OK--105" value="(1,1)" style="text;strokeColor=none;align=center;fillColor=none;html=1;verticalAlign=middle;whiteSpace=wrap;rounded=0;" vertex="1" parent="1">
          <mxGeometry x="280" y="415" width="60" height="30" as="geometry" />
        </mxCell>
        <mxCell id="sfVFJ_ldbt0xJAOG3OK--106" value="apellido_maestro" style="ellipse;whiteSpace=wrap;html=1;align=center;" vertex="1" parent="1">
          <mxGeometry x="160" y="580" width="100" height="40" as="geometry" />
        </mxCell>
        <mxCell id="sfVFJ_ldbt0xJAOG3OK--107" value="tel_contacto" style="ellipse;whiteSpace=wrap;html=1;align=center;" vertex="1" parent="1">
          <mxGeometry x="430" y="610" width="100" height="40" as="geometry" />
        </mxCell>
        <mxCell id="sfVFJ_ldbt0xJAOG3OK--108" value="" style="endArrow=none;html=1;rounded=0;exitX=0.33;exitY=-0.1;exitDx=0;exitDy=0;exitPerimeter=0;entryX=0.93;entryY=1.133;entryDx=0;entryDy=0;entryPerimeter=0;" edge="1" parent="1" source="sfVFJ_ldbt0xJAOG3OK--107" target="sfVFJ_ldbt0xJAOG3OK--57">
          <mxGeometry relative="1" as="geometry">
            <mxPoint x="550" y="430" as="sourcePoint" />
            <mxPoint x="710" y="430" as="targetPoint" />
          </mxGeometry>
        </mxCell>
        <mxCell id="sfVFJ_ldbt0xJAOG3OK--109" value="" style="endArrow=none;html=1;rounded=0;exitX=1.023;exitY=0.333;exitDx=0;exitDy=0;exitPerimeter=0;entryX=0;entryY=1;entryDx=0;entryDy=0;" edge="1" parent="1" source="sfVFJ_ldbt0xJAOG3OK--106" target="sfVFJ_ldbt0xJAOG3OK--57">
          <mxGeometry relative="1" as="geometry">
            <mxPoint x="150" y="420" as="sourcePoint" />
            <mxPoint x="310" y="420" as="targetPoint" />
          </mxGeometry>
        </mxCell>
        <mxCell id="sfVFJ_ldbt0xJAOG3OK--110" value="nombre_est" style="ellipse;whiteSpace=wrap;html=1;align=center;" vertex="1" parent="1">
          <mxGeometry x="510" y="100" width="100" height="40" as="geometry" />
        </mxCell>
        <mxCell id="sfVFJ_ldbt0xJAOG3OK--111" value="apellido_est" style="ellipse;whiteSpace=wrap;html=1;align=center;" vertex="1" parent="1">
          <mxGeometry x="500" y="165" width="100" height="40" as="geometry" />
        </mxCell>
        <mxCell id="sfVFJ_ldbt0xJAOG3OK--112" value="" style="endArrow=none;html=1;rounded=0;exitX=1;exitY=0.5;exitDx=0;exitDy=0;entryX=0;entryY=0.5;entryDx=0;entryDy=0;" edge="1" parent="1" source="sfVFJ_ldbt0xJAOG3OK--56" target="sfVFJ_ldbt0xJAOG3OK--110">
          <mxGeometry relative="1" as="geometry">
            <mxPoint x="490" y="260" as="sourcePoint" />
            <mxPoint x="650" y="260" as="targetPoint" />
          </mxGeometry>
        </mxCell>
        <mxCell id="sfVFJ_ldbt0xJAOG3OK--113" value="" style="endArrow=none;html=1;rounded=0;exitX=0.93;exitY=1;exitDx=0;exitDy=0;exitPerimeter=0;entryX=0.057;entryY=0.208;entryDx=0;entryDy=0;entryPerimeter=0;" edge="1" parent="1" source="sfVFJ_ldbt0xJAOG3OK--56" target="sfVFJ_ldbt0xJAOG3OK--111">
          <mxGeometry relative="1" as="geometry">
            <mxPoint x="440" y="150" as="sourcePoint" />
            <mxPoint x="600" y="150" as="targetPoint" />
          </mxGeometry>
        </mxCell>
      </root>
    </mxGraphModel>
  </diagram>
</mxfile>
